HIERARCHY
ROOT Hips
{
  OFFSET 51.5836 93.8138 7.64105
  CHANNELS 6 Xposition Yposition Zposition Zrotation Xrotation Yrotation
  JOINT spine
  {
    OFFSET 0 7.4756 0.429885
    CHANNELS 3 Zrotation Xrotation Yrotation
    JOINT spine1
    {
      OFFSET 0 9.92301 0
      CHANNELS 3 Zrotation Xrotation Yrotation
      JOINT spine2
      {
        OFFSET 0 9.50804 0
        CHANNELS 3 Zrotation Xrotation Yrotation
        JOINT Neck
        {
          OFFSET 0 24.4111 1.16384
          CHANNELS 3 Zrotation Xrotation Yrotation
          JOINT Head
          {
            OFFSET 0 7.37523 0
            CHANNELS 3 Zrotation Xrotation Yrotation
            End Site
            {
              OFFSET 0 17.8522 -5.88741
            }
          }
        }
        JOINT RightShoulder
        {
          OFFSET -4.00356 10.2679 -0.557468
          CHANNELS 3 Zrotation Xrotation Yrotation
          JOINT RightArm
          {
            OFFSET 0 13.4673 0
            CHANNELS 3 Zrotation Xrotation Yrotation
            JOINT RightArmRoll
            {
              OFFSET 0 6.79858 0
              CHANNELS 3 Zrotation Xrotation Yrotation
              JOINT RightForeArm
              {
                OFFSET 0 19.8018 0
                CHANNELS 3 Zrotation Xrotation Yrotation
                JOINT RightForeArmRoll
                {
                  OFFSET 0 7.62906 0
                  CHANNELS 3 Zrotation Xrotation Yrotation
                  JOINT RightHand
                  {
                    OFFSET 0 15.3098 0
                    CHANNELS 3 Zrotation Xrotation Yrotation
                    End Site
                    {
                      OFFSET 0 0 0
                    }
                  }
                }
              }
            }
          }
        }
        JOINT LeftShoulder
        {
          OFFSET 4.00356 10.2679 -0.557468
          CHANNELS 3 Zrotation Xrotation Yrotation
          JOINT LeftArm
          {
            OFFSET 0 13.4673 0
            CHANNELS 3 Zrotation Xrotation Yrotation
            JOINT LeftArmRoll
            {
              OFFSET 0 6.79858 0
              CHANNELS 3 Zrotation Xrotation Yrotation
              JOINT LeftForeArm
              {
                OFFSET 0 19.8018 0
                CHANNELS 3 Zrotation Xrotation Yrotation
                JOINT LeftForeArmRoll
                {
                  OFFSET 0 7.62906 0
                  CHANNELS 3 Zrotation Xrotation Yrotation
                  JOINT LeftHand
                  {
                    OFFSET 0 15.3098 0
                    CHANNELS 3 Zrotation Xrotation Yrotation
                    End Site
                    {
                      OFFSET 0 0 0
                    }
                  }
                }
              }
            }
          }
        }
      }
    }
  }
  JOINT RightUpLeg
  {
    OFFSET -6.62609 -1.21505 -1.01927
    CHANNELS 3 Zrotation Xrotation Yrotation
    JOINT RightUpLegRoll
    {
      OFFSET 0 17.9517 0
      CHANNELS 3 Zrotation Xrotation Yrotation
      JOINT RightLeg
      {
        OFFSET 0 -22.2304 0
        CHANNELS 3 Zrotation Xrotation Yrotation
        JOINT RightLegRoll
        {
          OFFSET 0 22.3032 0
          CHANNELS 3 Zrotation Xrotation Yrotation
          JOINT RightFoot
          {
            OFFSET 0 18.5636 0
            CHANNELS 3 Zrotation Xrotation Yrotation
            JOINT RightToeBase
            {
              OFFSET 0 15.5183 0
              CHANNELS 3 Zrotation Xrotation Yrotation
              End Site
              {
                OFFSET 0.00657761 7.51539 -0.866263
              }
            }
          }
        }
      }
    }
  }
  JOINT LeftUpLeg
  {
    OFFSET 6.62609 -1.21505 -1.01927
    CHANNELS 3 Zrotation Xrotation Yrotation
    JOINT LeftUpLegRoll
    {
      OFFSET 0 17.9518 0
      CHANNELS 3 Zrotation Xrotation Yrotation
      JOINT LeftLeg
      {
        OFFSET 0 22.2303 0
        CHANNELS 3 Zrotation Xrotation Yrotation
        JOINT LeftLegRoll
        {
          OFFSET 0 22.5093 0
          CHANNELS 3 Zrotation Xrotation Yrotation
          JOINT LeftFoot
          {
            OFFSET 0 18.3575 0
            CHANNELS 3 Zrotation Xrotation Yrotation
            JOINT LeftToeBase
            {
              OFFSET 0 15.5183 0
              CHANNELS 3 Zrotation Xrotation Yrotation
              End Site
              {
                OFFSET -0.029478 7.51538 -0.866263
              }
            }
          }
        }
      }
    }
  }
}
MOTION
Frames: 9
Frame Time: 0.00208333
50.4802 93.2735 12.3644 -0.185041 -1.01976 2.17541 0.222896 -1.55273 0.0965893 0.458647 0.897681 0.164477 0.45723 2.54271 0.156842 -8.48416 9.06694 -1.40741 7.21951 4.7458 -2.99772 66.1504 -3.063 -2.52021 101.526 -4.08629 26.8344 -7.12135e-008 -1.58371e-006 -8.20782e-006 4.30665 0.589346 -1.15119 8.01991e-008 2.26519e-006 -3.00872 8.02967 -4.95142 0.697669 -75.9627 -1.78584 2.74446 -96.0339 2.22363 -32.1691 1.06747e-005 -9.57252e-006 -5.13009e-006 2.70894 3.21751 0.756354 -1.34734e-006 1.20896e-007 3 -8.03013 -4.95141 -0.697652 179.837 -0.757267 -0.682325 180 7.01543e-015 178.906 177.891 8.42228 179.726 2.80947e-006 -6.37821e-006 0.169599 -19.9849 69.5936 20.9724 8.14352 25.2323 -3.49073 -177.92 -1.37488 2.00793 4.54188e-006 -4.6773e-006 -1.06197 -2.63493 -6.0252 0.0571674 -1.35904e-006 7.65516e-007 -0.0433458 17.9695 67.0755 -18.8189 -8.13126 25.2391 3.47602 
50.4808 93.2705 12.3728 -0.198895 -0.941077 2.20407 0.221399 -1.56485 0.0948633 0.454925 0.873433 0.161637 0.453516 2.51846 0.154064 -8.43783 9.01186 -1.42196 7.18652 4.7993 -3.00329 66.1224 -3.06386 -2.51837 101.618 -4.15113 26.8428 -7.12135e-008 -1.58371e-006 -8.20782e-006 4.30523 0.635821 -1.15453 8.01991e-008 2.26519e-006 -3.00872 8.02967 -4.95142 0.697669 -75.9309 -1.80395 2.74944 -95.9584 2.29776 -32.1591 1.06747e-005 -9.57252e-006 -5.13009e-006 2.70229 3.23856 0.755966 -1.34734e-006 1.20896e-007 3 -8.03013 -4.95141 -0.697652 179.871 -0.633898 -0.722362 180 7.01543e-015 178.907 177.916 8.51017 179.722 2.80947e-006 -6.37821e-006 0.17039 -19.9766 69.5845 20.9628 8.14352 25.2323 -3.49073 -177.905 -1.28682 2.00419 4.54188e-006 -4.6773e-006 -1.06084 -2.63402 -6.0349 0.0570752 -1.35904e-006 7.65516e-007 -0.0433476 17.9639 67.0682 -18.8127 -8.1316 25.2442 3.46695 
50.466 93.2693 12.3659 -0.212611 -0.86344 2.23256 0.219935 -1.57687 0.0931479 0.451292 0.849391 0.15883 0.44989 2.49442 0.151318 -8.3931 8.95737 -1.43597 7.15408 4.85423 -3.00872 66.0927 -3.06467 -2.51637 101.712 -4.21696 26.8527 -7.12135e-008 -1.58371e-006 -8.20782e-006 4.30274 0.683097 -1.15798 8.01991e-008 2.26519e-006 -3.00872 8.02967 -4.95142 0.697669 -75.9 -1.82304 2.75492 -95.8829 2.37412 -32.1493 1.06747e-005 -9.57252e-006 -5.13009e-006 2.69647 3.25739 0.755567 -1.34734e-006 1.20896e-007 3 -8.03013 -4.95141 -0.697652 179.905 -0.513162 -0.762821 180 7.01543e-015 178.907 177.941 8.5962 179.717 2.80947e-006 -6.37821e-006 0.171136 -19.9682 69.5754 20.9531 8.14352 25.2323 -3.49073 -177.89 -1.20023 2.00063 4.54188e-006 -4.6773e-006 -1.05974 -2.63309 -6.04429 0.0569532 -1.35904e-006 7.65516e-007 -0.0433504 17.9585 67.0611 -18.8067 -8.13187 25.2485 3.45806 
50.4713 93.2754 12.3735 -0.226252 -0.786538 2.26095 0.218494 -1.58881 0.0914399 0.447719 0.825493 0.156045 0.446325 2.47053 0.148593 -8.34948 8.90329 -1.44958 7.12203 4.91016 -3.01407 66.062 -3.06544 -2.51426 101.809 -4.28348 26.8637 -7.12135e-008 -1.58371e-006 -8.20782e-006 4.29949 0.730934 -1.16151 8.01991e-008 2.26519e-006 -3.00872 8.02967 -4.95142 0.697669 -75.8697 -1.8428 2.76075 -95.8074 2.45203 -32.1397 1.06747e-005 -9.57252e-006 -5.13009e-006 2.69122 3.27466 0.755159 -1.34734e-006 1.20896e-007 3 -8.03013 -4.95141 -0.697652 179.94 -0.394271 -0.803577 180 7.01544e-015 178.908 177.967 8.68089 179.713 2.80947e-006 -6.37821e-006 0.171851 -19.9598 69.5663 20.9433 8.14352 25.2323 -3.49073 -177.876 -1.11467 1.9972 4.54188e-006 -4.6773e-006 -1.05866 -2.63213 -6.05347 0.0568104 -1.35904e-006 7.65516e-007 -0.0433538 17.9532 67.0542 -18.8009 -8.1321 25.2522 3.44928 
50.4583 93.2757 12.3656 -0.239881 -0.710057 2.28927 0.217066 -1.60071 0.0897361 0.444181 0.801677 0.153274 0.442793 2.44671 0.145881 -8.30652 8.84944 -1.46296 7.0902 4.96667 -3.01936 66.0306 -3.06619 -2.51209 101.907 -4.35037 26.8753 -7.12135e-008 -1.58371e-006 -8.20782e-006 4.29582 0.779091 -1.16509 8.01991e-008 2.26519e-006 -3.00872 8.02967 -4.95142 0.697669 -75.8397 -1.86295 2.76677 -95.7319 2.53085 -32.1302 1.06747e-005 -9.57252e-006 -5.13009e-006 2.6863 3.29103 0.754747 -1.34734e-006 1.20896e-007 3 -8.03013 -4.95141 -0.697652 179.975 -0.276435 -0.844504 180 7.01544e-015 178.909 177.993 8.76486 179.708 2.80947e-006 -6.37821e-006 0.172549 -19.9513 69.557 20.9335 8.14352 25.2323 -3.49073 -177.861 -1.0297 1.99385 4.54188e-006 -4.6773e-006 -1.05759 -2.63116 -6.06252 0.0566557 -1.35904e-006 7.65516e-007 -0.0433575 17.948 67.0475 -18.7951 -8.1323 25.2555 3.44058 
50.4523 93.277 12.3695 -0.253564 -0.633684 2.31758 0.21564 -1.61261 0.0880335 0.440649 0.777881 0.150505 0.439268 2.42292 0.143172 -8.26374 8.79564 -1.4763 7.05844 5.02332 -3.02465 65.999 -3.06694 -2.5099 102.006 -4.41735 26.8871 -7.12135e-008 -1.58371e-006 -8.20782e-006 4.29205 0.827328 -1.16868 8.01991e-008 2.26519e-006 -3.00872 8.02967 -4.95142 0.697669 -75.8099 -1.8832 2.77285 -95.6564 2.6099 -32.1207 1.06747e-005 -9.57252e-006 -5.13009e-006 2.68147 3.30718 0.754334 -1.34734e-006 1.20896e-007 3 -8.03013 -4.95141 -0.697652 -179.989 -0.158864 -0.885475 180 7.01544e-015 178.909 178.019 8.84862 179.704 2.80947e-006 -6.37821e-006 0.173242 -19.9428 69.5478 20.9237 8.14352 25.2323 -3.49073 -177.847 -0.944882 1.99052 4.54188e-006 -4.6773e-006 -1.05652 -2.63018 -6.07154 0.0564981 -1.35904e-006 7.65516e-007 -0.0433613 17.9428 67.0407 -18.7894 -8.13249 25.2588 3.4319 
50.4514 93.2737 12.3677 -0.267367 -0.557104 2.34592 0.214207 -1.62452 0.0863286 0.437097 0.754045 0.14773 0.435722 2.39908 0.140458 -8.22067 8.74173 -1.48973 7.02659 5.07969 -3.02997 65.9678 -3.0677 -2.50774 102.103 -4.48413 26.8987 -7.12135e-008 -1.58371e-006 -8.20782e-006 4.2885 0.875405 -1.17225 8.01991e-008 2.26519e-006 -3.00872 8.02967 -4.95142 0.697669 -75.7798 -1.90326 2.77882 -95.581 2.68854 -32.1114 1.06747e-005 -9.57252e-006 -5.13009e-006 2.67647 3.32377 0.753923 -1.34734e-006 1.20896e-007 3 -8.03013 -4.95141 -0.697652 -179.954 -0.0407696 -0.926366 180 7.01544e-015 178.91 178.045 8.93276 179.699 2.80947e-006 -6.37821e-006 0.173944 -19.9344 69.5386 20.9139 8.14352 25.2323 -3.49073 -177.832 -0.859766 1.98716 4.54188e-006 -4.6773e-006 -1.05544 -2.62921 -6.08062 0.0563463 -1.35904e-006 7.65516e-007 -0.043365 17.9376 67.0339 -18.7836 -8.1327 25.2622 3.42318 
50.4468 93.2764 12.3693 -0.281356 -0.480004 2.37435 0.212756 -1.63648 0.0846185 0.433497 0.730105 0.14494 0.43213 2.37515 0.137727 -8.17685 8.68753 -1.50344 6.99447 5.13533 -3.03535 65.9373 -3.06848 -2.50567 102.2 -4.55039 26.9096 -7.12135e-008 -1.58371e-006 -8.20782e-006 4.28549 0.923081 -1.17576 8.01991e-008 2.26519e-006 -3.00872 8.02967 -4.95142 0.697669 -75.7493 -1.92282 2.78455 -95.5056 2.76608 -32.102 1.06747e-005 -9.57252e-006 -5.13009e-006 2.67106 3.34148 0.753518 -1.34734e-006 1.20896e-007 3 -8.03013 -4.95141 -0.697652 -179.918 0.0786382 -0.96705 180 7.01544e-015 178.911 178.071 9.01783 179.695 2.80947e-006 -6.37821e-006 0.174668 -19.926 69.5295 20.9042 8.14352 25.2323 -3.49073 -177.817 -0.773912 1.98371 4.54188e-006 -4.6773e-006 -1.05435 -2.62826 -6.08986 0.0562095 -1.35904e-006 7.65516e-007 -0.0433682 17.9323 67.027 -18.7777 -8.13293 25.266 3.41437 
50.4392 93.2784 12.3482 -0.295598 -0.402071 2.40291 0.211278 -1.64853 0.0828997 0.429822 0.706002 0.142123 0.428463 2.35104 0.134972 -8.1318 8.63287 -1.51759 6.96193 5.18983 -3.04085 65.9082 -3.0693 -2.50372 102.294 -4.61586 26.9193 -7.12135e-008 -1.58371e-006 -8.20782e-006 4.28336 0.970116 -1.17918 8.01991e-008 2.26519e-006 -3.00872 8.02967 -4.95142 0.697669 -75.7182 -1.94161 2.78989 -95.4303 2.84188 -32.0925 1.06747e-005 -9.57252e-006 -5.13009e-006 2.66499 3.36098 0.753122 -1.34734e-006 1.20896e-007 3 -8.03013 -4.95141 -0.697652 -179.883 0.200148 -1.0074 180 7.01544e-015 178.911 178.096 9.10441 179.69 2.80947e-006 -6.37821e-006 0.175428 -19.9177 69.5204 20.8946 8.14352 25.2323 -3.49073 -177.802 -0.686876 1.98013 4.54188e-006 -4.6773e-006 -1.05324 -2.62733 -6.09934 0.0560964 -1.35904e-006 7.65516e-007 -0.0433707 17.9268 67.0198 -18.7717 -8.13322 25.2705 3.40541 
